<svg width="64" height="54" viewBox="0 0 64 54" fill="none" xmlns="http://www.w3.org/2000/svg">
<circle cx="33" cy="27" r="27" fill="#FFFFFB"/>
<path d="M31.7431 26.5757C29.1031 25.7823 22.1537 24.1876 22.1537 24.2082C22.1537 25.3022 21.795 25.8933 20.951 26.6668C20.1071 27.4404 18.9625 27.875 17.7691 27.875C16.5756 27.875 15.1514 27.4404 14.3075 26.6668C13.4636 25.8933 12.9229 25.3022 12.9229 24.2082C12.9229 24.1876 6.43506 25.7823 3.79356 26.5757C3.49428 26.6656 3.23385 26.8402 3.04975 27.0745C2.86564 27.3087 2.76737 27.5905 2.76906 27.8792V32.9887C2.76913 33.1975 2.82109 33.4036 2.92102 33.5913C3.02095 33.779 3.16621 33.9434 3.34578 34.0719C3.52535 34.2005 3.73451 34.2899 3.95739 34.3333C4.18026 34.3767 4.41099 34.3729 4.63206 34.3224L8.76906 33.375V49.875C8.76906 50.2397 8.9271 50.5894 9.2084 50.8473C9.48971 51.1052 9.87124 51.25 10.2691 51.25H25.2691C25.6669 51.25 26.0484 51.1052 26.3297 50.8473C26.611 50.5894 26.7691 50.2397 26.7691 49.875V33.375L30.9061 34.3224C31.1271 34.3729 31.3579 34.3767 31.5807 34.3333C31.8036 34.2899 32.0128 34.2005 32.1923 34.0719C32.3719 33.9434 32.5172 33.779 32.6171 33.5913C32.717 33.4036 32.769 33.1975 32.7691 32.9887V27.8792C32.7707 27.5903 32.6722 27.3084 32.4878 27.0741C32.3034 26.8399 32.0426 26.6653 31.7431 26.5757Z" fill="#FBDE80"/>
<path d="M8.76562 38H26.767V42H8.76562V40.0469V38Z" fill="#ACD8A8"/>
<path d="M57.6115 15.5335C57.4199 15.5335 57.2361 15.457 57.1006 15.3207C56.9651 15.1844 56.889 14.9996 56.889 14.8069V10.4468C56.889 6.03951 53.972 2.45335 50.386 2.45335C46.8007 2.45335 43.8831 6.03951 43.8831 10.4468V14.8069C43.8831 14.9996 43.807 15.1844 43.6715 15.3207C43.536 15.457 43.3522 15.5335 43.1605 15.5335C42.9689 15.5335 42.7851 15.457 42.6496 15.3207C42.5141 15.1844 42.438 14.9996 42.438 14.8069V10.4468C42.438 5.23798 46.0038 1 50.386 1C54.7683 1 58.3341 5.23798 58.3341 10.4468V14.8069C58.3341 14.9996 58.2579 15.1844 58.1224 15.3207C57.9869 15.457 57.8031 15.5335 57.6115 15.5335Z" fill="#FFAC33"/>
<path d="M62.1823 8.97328C61.9757 7.38621 60.3765 6.08691 58.628 6.08691H41.279C39.5304 6.08691 37.9313 7.38621 37.7246 8.97328L36.0222 22.0942C35.8155 23.682 37.0777 24.9805 38.8262 24.9805H61.0807C62.8293 24.9805 64.0914 23.682 63.8848 22.0942L62.1823 8.97328Z" fill="#FFE5D3"/>
<path d="M46.3723 6.26367H54.2409L55.3138 25.0002H45.2993L46.3723 6.26367Z" fill="#FFCE87"/>
</svg>
